<svg width="56" height="56" viewBox="0 0 56 56" fill="none" xmlns="http://www.w3.org/2000/svg">
<circle cx="28" cy="28" r="28" fill="#0360D9"/>
<g clip-path="url(#clip0_2_294)">
<path d="M31.742 28.344C32.7103 27.0227 33.144 25.3845 32.9563 23.7571C32.7686 22.1298 31.9734 20.6333 30.7298 19.5671C29.4861 18.5009 27.8857 17.9436 26.2488 18.0067C24.6119 18.0697 23.0592 18.7485 21.9013 19.9073C20.7433 21.066 20.0656 22.6193 20.0037 24.2562C19.9418 25.8932 20.5003 27.4931 21.5674 28.736C22.6345 29.9789 24.1315 30.773 25.759 30.9596C27.3865 31.1461 29.0244 30.7112 30.345 29.742H30.344C30.374 29.782 30.406 29.82 30.442 29.857L34.292 33.707C34.4795 33.8946 34.7339 34.0001 34.9991 34.0002C35.2644 34.0003 35.5189 33.895 35.7065 33.7075C35.8941 33.52 35.9996 33.2656 35.9997 33.0003C35.9998 32.7351 35.8945 32.4806 35.707 32.293L31.857 28.443C31.8212 28.4068 31.7828 28.3734 31.742 28.343V28.344ZM32 24.5C32 25.2222 31.8577 25.9374 31.5813 26.6047C31.3049 27.272 30.8998 27.8783 30.3891 28.3891C29.8784 28.8998 29.272 29.3049 28.6048 29.5813C27.9375 29.8577 27.2223 30 26.5 30C25.7777 30 25.0625 29.8577 24.3952 29.5813C23.7279 29.3049 23.1216 28.8998 22.6109 28.3891C22.1002 27.8783 21.6951 27.272 21.4187 26.6047C21.1423 25.9374 21 25.2222 21 24.5C21 23.0413 21.5795 21.6423 22.6109 20.6109C23.6424 19.5794 25.0413 19 26.5 19C27.9587 19 29.3576 19.5794 30.3891 20.6109C31.4205 21.6423 32 23.0413 32 24.5Z" fill="white"/>
</g>
<defs>
<clipPath id="clip0_2_294">
<rect width="16" height="16" fill="white" transform="translate(20 18)"/>
</clipPath>
</defs>
</svg>
