<svg width="16" height="17" viewBox="0 0 16 17" fill="none" xmlns="http://www.w3.org/2000/svg">
<path d="M15.9505 4.73034C15.9415 4.05742 15.8155 3.39118 15.5782 2.76144C15.3724 2.23026 15.058 1.74784 14.6552 1.34503C14.2524 0.942215 13.77 0.627855 13.2388 0.422035C12.6172 0.188678 11.9604 0.0624978 11.2965 0.0488672C10.4418 0.010662 10.1708 0 8.00113 0C5.83142 0 5.55333 5.95782e-08 4.70481 0.0488672C4.04125 0.062598 3.38482 0.188777 2.76345 0.422035C2.23219 0.627712 1.7497 0.942021 1.34687 1.34485C0.944035 1.74769 0.629726 2.23017 0.424049 2.76144C0.190225 3.38261 0.0643182 4.03919 0.0517698 4.7028C0.0135646 5.55842 0.00201416 5.82941 0.00201416 7.99911C0.00201416 10.1688 0.00201415 10.446 0.0517698 11.2954C0.0650972 11.96 0.190375 12.6157 0.424049 13.2386C0.630071 13.7697 0.944614 14.252 1.34758 14.6546C1.75055 15.0573 2.23308 15.3715 2.76434 15.5771C3.38401 15.8198 4.04055 15.955 4.7057 15.9769C5.56132 16.0151 5.83231 16.0267 8.00202 16.0267C10.1717 16.0267 10.4498 16.0267 11.2983 15.9769C11.9622 15.9638 12.6189 15.8379 13.2406 15.6046C13.7716 15.3986 14.2539 15.0841 14.6567 14.6813C15.0595 14.2786 15.3739 13.7963 15.58 13.2652C15.8137 12.6433 15.9389 11.9876 15.9523 11.3221C15.9905 10.4673 16.002 10.1964 16.002 8.02577C16.0002 5.85606 16.0002 5.58063 15.9505 4.73034ZM7.9958 12.1022C5.72658 12.1022 3.88829 10.2639 3.88829 7.99467C3.88829 5.72546 5.72658 3.88716 7.9958 3.88716C9.08517 3.88716 10.1299 4.31992 10.9002 5.09022C11.6705 5.86053 12.1033 6.90529 12.1033 7.99467C12.1033 9.08405 11.6705 10.1288 10.9002 10.8991C10.1299 11.6694 9.08517 12.1022 7.9958 12.1022ZM12.2668 4.69303C12.141 4.69314 12.0164 4.66845 11.9001 4.62036C11.7839 4.57226 11.6782 4.50172 11.5893 4.41275C11.5003 4.32379 11.4298 4.21816 11.3817 4.1019C11.3336 3.98564 11.3089 3.86104 11.309 3.73523C11.309 3.60951 11.3338 3.48502 11.3819 3.36887C11.43 3.25271 11.5005 3.14718 11.5894 3.05828C11.6783 2.96938 11.7838 2.89886 11.9 2.85075C12.0161 2.80264 12.1406 2.77788 12.2663 2.77788C12.3921 2.77788 12.5166 2.80264 12.6327 2.85075C12.7489 2.89886 12.8544 2.96938 12.9433 3.05828C13.0322 3.14718 13.1027 3.25271 13.1508 3.36887C13.1989 3.48502 13.2237 3.60951 13.2237 3.73523C13.2237 4.26477 12.7954 4.69303 12.2668 4.69303Z" fill="white"/>
<path d="M7.99578 10.663C9.46936 10.663 10.6639 9.46839 10.6639 7.99481C10.6639 6.52123 9.46936 5.32666 7.99578 5.32666C6.52221 5.32666 5.32764 6.52123 5.32764 7.99481C5.32764 9.46839 6.52221 10.663 7.99578 10.663Z" fill="white"/>
</svg>
