<svg width="16" height="14" viewBox="0 0 16 14" fill="none" xmlns="http://www.w3.org/2000/svg">
<path d="M5.03474 13.5139C6.26321 13.5216 7.48098 13.2854 8.61743 12.8188C9.75388 12.3523 10.7864 11.6647 11.6551 10.796C12.5237 9.92737 13.2113 8.89486 13.6778 7.75841C14.1444 6.62196 14.3807 5.40419 14.3729 4.17572V3.74663C15.0097 3.28008 15.5609 2.70676 16.002 2.05209C15.4024 2.31434 14.7679 2.48827 14.1184 2.56845C14.807 2.15811 15.3238 1.51221 15.5729 0.75027C14.9311 1.13532 14.2273 1.406 13.4929 1.55027C12.9983 1.02326 12.3438 0.673947 11.6307 0.556369C10.9176 0.438791 10.1856 0.559506 9.54801 0.899837C8.9104 1.24017 8.40273 1.78114 8.10355 2.43905C7.80436 3.09697 7.73033 3.83514 7.89292 4.53936C6.58821 4.47532 5.31162 4.13719 4.14627 3.547C2.98092 2.95681 1.95295 2.12778 1.12929 1.11391C0.713958 1.83476 0.58807 2.68651 0.777112 3.49669C0.966154 4.30687 1.456 5.01494 2.14747 5.47754C1.63737 5.45787 1.13907 5.31835 0.692923 5.07027V5.10663C0.68839 5.85997 0.942175 6.5921 1.41198 7.18101C1.88179 7.76992 2.53923 8.18003 3.27474 8.343C2.8003 8.4706 2.30332 8.49048 1.8202 8.40118C2.03313 9.04364 2.4396 9.6045 2.98387 10.0068C3.52813 10.4092 4.18354 10.6333 4.8602 10.6485C3.70326 11.5797 2.26535 12.0924 0.780196 12.103C0.519798 12.0955 0.260012 12.0736 0.00201416 12.0375C1.50525 12.9953 3.25234 13.5002 5.03474 13.4921" fill="white"/>
</svg>
